<svg width="16" height="16" viewBox="0 0 16 16" fill="none" xmlns="http://www.w3.org/2000/svg">
<path d="M15.5083 9.87431C15.5083 9.60394 15.3643 9.34794 15.1221 9.20581L14.0937 8.61297C14.1138 8.40934 14.1239 8.20466 14.1239 8C14.1239 7.79534 14.1138 7.59066 14.0937 7.38703L15.1221 6.79419C15.3643 6.65206 15.5083 6.39606 15.5083 6.12569C15.5083 5.46109 13.9671 2.12019 12.8671 2.12019C12.7344 2.12019 12.6011 2.15434 12.4806 2.22509L11.4562 2.81787C11.1215 2.57594 10.7667 2.37025 10.3916 2.20088V1.01525C10.3916 0.664437 10.1577 0.357906 9.81891 0.269156C9.14544 0.0897187 8.45078 0 7.75566 0C7.06047 0 6.36484 0.0897187 5.68937 0.269156C5.35056 0.357906 5.11669 0.664437 5.11669 1.01525V2.20088C4.74162 2.37025 4.38678 2.57594 4.05206 2.81787L3.02769 2.22509C2.90722 2.15434 2.77384 2.12019 2.64122 2.12019C2.64116 2.12019 2.64106 2.12019 2.641 2.12019C1.6265 2.12019 0 5.29972 0 6.12569C0 6.39606 0.143969 6.65206 0.386219 6.79419L1.41459 7.38703C1.39444 7.59066 1.38434 7.79534 1.38434 8C1.38434 8.20466 1.39444 8.40934 1.41459 8.61297L0.386219 9.20581C0.143969 9.34794 0 9.60394 0 9.87431C0 10.5389 1.54119 13.8798 2.64122 13.8798C2.77384 13.8798 2.90716 13.8457 3.02769 13.7749L4.05206 13.1821C4.38678 13.4241 4.74162 13.6297 5.11669 13.7991V14.9847C5.11669 15.3356 5.35056 15.6421 5.68937 15.7308C6.36284 15.9103 7.0575 16 7.75263 16C8.44781 16 9.14344 15.9103 9.81891 15.7308C10.1577 15.6421 10.3916 15.3356 10.3916 14.9847V13.7991C10.7667 13.6297 11.1215 13.4241 11.4562 13.1821L12.4806 13.7749C12.6011 13.8457 12.7344 13.8798 12.8671 13.8798C13.8815 13.8798 15.5083 10.7007 15.5083 9.87431ZM12.73 12.1862C11.9863 11.7558 12.3782 11.9826 11.3658 11.3967C10.0515 12.3466 10.3555 12.1696 8.89159 12.8307V14.4006C8.47612 14.4738 8.09212 14.5 7.75291 14.5C7.27091 14.5 6.87937 14.4471 6.61669 14.4008V12.8307C5.14934 12.168 5.45475 12.3451 4.1425 11.3967C3.14838 11.972 3.43425 11.8066 2.77888 12.1859C2.28691 11.6018 1.90153 10.9342 1.64116 10.2137C2.30134 9.83322 2.01128 10.0004 3.00275 9.42884C2.92341 8.62759 2.88366 8.31497 2.88366 8.00125C2.88366 7.68806 2.92328 7.37375 3.00275 6.57116C2.00619 5.99662 2.29909 6.16547 1.64075 5.786C1.90056 5.06591 2.28709 4.39644 2.77825 3.81378C3.522 4.24419 3.13013 4.01737 4.1425 4.60328C5.45675 3.65344 5.15281 3.83044 6.61669 3.16931V1.59938C7.03216 1.52622 7.41619 1.5 7.75537 1.5C8.23741 1.5 8.62894 1.55294 8.89159 1.59925V3.16931C10.3589 3.832 10.0535 3.65487 11.3658 4.60328C12.4267 3.98928 12.0696 4.19594 12.7295 3.81409C13.2214 4.39825 13.6067 5.06578 13.8671 5.78625C13.2069 6.16678 13.497 5.99956 12.5055 6.57116C12.5849 7.37241 12.6246 7.68503 12.6246 7.99875C12.6246 8.31194 12.585 8.62625 12.5055 9.42884C13.5021 10.0034 13.2092 9.83453 13.8675 10.214C13.6077 10.9341 13.2212 11.6036 12.73 12.1862ZM7.75416 5C6.10181 5 4.75416 6.34766 4.75416 8C4.75416 9.65234 6.10181 11 7.75416 11C9.4065 11 10.7542 9.65234 10.7542 8C10.7542 6.34766 9.4065 5 7.75416 5ZM7.75416 9.5C6.92706 9.5 6.25416 8.82709 6.25416 8C6.25416 7.17291 6.92706 6.5 7.75416 6.5C8.58125 6.5 9.25416 7.17291 9.25416 8C9.25416 8.82709 8.58122 9.5 7.75416 9.5Z" fill="#3B454F"/>
</svg>
